# xmcd
#
# Track frame offsets:
#	183
#	14473
#	33328
#	44410
#	53613
#	68833
#	81133
#	94643
#	105938
#	119338
#	129133
#	139573
#	146795
#	162663
#
# Disc length: 2297 seconds
#
# Revision: 2
# Processed by: cddbd v1.5.2PL0 Copyright (c) Steve Scherf et al.
# Submitted via: audiograbber 1.83.01
#
DISCID=b408f70e
DTITLE=Judy Garland - The one and only
DYEAR=1988
DGENRE=Blues
TTITLE0=Somewhere over the rainbow
TTITLE1=The man that got away
TTITLE2=A foggy day in london town
TTITLE3=Make someone happy
TTITLE4=When the sun comes out
TTITLE5=Smile
TTITLE6=I'm always chasing rainbows
TTITLE7=How about me
TTITLE8=That's all
TTITLE9=That's entertainment
TTITLE10=Chicago
TTITLE11=Puttin' on the Ritz
TTITLE12=You made me love you for me and my gal trolley song
TTITLE13=If I had a talking picture of you toot toot tootsie
EXTD=The Collection
EXTT0=
EXTT1=
EXTT2=
EXTT3=
EXTT4=
EXTT5=
EXTT6=
EXTT7=
EXTT8=
EXTT9=
EXTT10=
EXTT11=
EXTT12=For me and my gal\nTrolley song
EXTT13=
PLAYORDER=
